<?xml version="1.0" encoding="UTF-8"?>
<!DOCTYPE svg PUBLIC "-//W3C//DTD SVG 1.1//EN" "http://www.w3.org/Graphics/SVG/1.1/DTD/svg11.dtd">
<!-- Creator: CorelDRAW -->
<svg xmlns="http://www.w3.org/2000/svg" xml:space="preserve" width="37.3063mm" height="9.2475mm" version="1.1" style="shape-rendering:geometricPrecision; text-rendering:geometricPrecision; image-rendering:optimizeQuality; fill-rule:evenodd; clip-rule:evenodd"
viewBox="0 0 1117.54 277.02"
 xmlns:xlink="http://www.w3.org/1999/xlink"
 xmlns:xodm="http://www.corel.com/coreldraw/odm/2003">
 <defs>
  <style type="text/css">
   <![CDATA[
    .fil0 {fill:white}
    .fil1 {fill:white;fill-rule:nonzero}
   ]]>
  </style>
 </defs>
 <g id="Layer_x0020_1">
  <metadata id="CorelCorpID_0Corel-Layer"/>
  <g id="_3043657481040">
   <path class="fil0" d="M352.78 117.2c-9.47,89.97 -85.24,159.82 -176.39,159.82 -92.34,0 -166.92,-69.84 -176.39,-159.82l352.78 0z"/>
   <polygon class="fil0" points="0,8.29 63.93,8.29 63.93,72.21 0,72.21 "/>
   <path class="fil0" d="M108.92 72.21c30.78,0 56.82,-24.86 56.82,-55.64 0,-3.55 -1.18,-7.1 -1.18,-10.66 -3.55,-1.18 -7.1,-1.18 -10.66,-1.18 -31.96,0 -56.82,24.86 -56.82,55.64 0,4.74 0,8.29 1.18,10.66 3.55,1.18 7.1,1.18 10.66,1.18z"/>
   <path class="fil0" d="M246.24 20.12l-18.94 -20.12 -18.94 20.12 -2.37 2.37c-4.74,5.92 -7.1,13.02 -7.1,20.12 0,16.57 13.02,30.78 28.41,30.78 15.39,0 28.41,-14.21 28.41,-30.78 0,-7.1 -2.37,-14.21 -7.1,-20.12l-2.37 -2.37 -0.01 0z"/>
   <path class="fil0" d="M294.78 69.84c9.47,8.29 29.6,1.18 44.98,-15.39 15.39,-16.57 18.94,-36.7 9.47,-44.98 -9.47,-9.47 -29.6,-2.37 -44.98,14.21 -15.39,16.57 -18.94,36.7 -9.47,46.17z"/>
  </g>
  <path class="fil1" d="M561.14 219.01l-55.64 -69.84 52.09 -48.54 -37.88 0 -42.62 41.43 0 -87.6 -30.78 0 0 164.55 30.78 0 0 -42.62 7.1 -7.1 39.07 49.72 37.88 0 0 -0zm93.53 -104.18c-10.66,-10.66 -23.68,-16.57 -37.88,-16.57 -16.57,0 -30.78,5.92 -42.62,17.76 -10.66,10.66 -16.57,26.04 -16.57,43.8 0,17.76 5.92,33.15 16.57,44.98 11.84,11.84 24.86,17.76 42.62,17.76 14.21,0 27.23,-5.92 37.88,-16.57l0 13.02 28.41 0 0 -118.38 -28.41 0 0 14.21 0 0zm0 44.98c0,9.47 -3.55,17.76 -9.47,24.86 -5.92,5.92 -14.21,9.47 -23.68,9.47 -9.47,0 -17.76,-3.55 -23.68,-9.47 -5.92,-7.1 -9.47,-15.39 -9.47,-24.86 0,-9.47 3.55,-16.57 9.47,-23.68 5.92,-7.1 14.21,-9.47 23.68,-9.47 9.47,0 17.76,2.37 23.68,9.47 5.92,7.1 9.47,14.21 9.47,23.68l0 0zm132.59 28.41c-7.1,4.74 -14.21,5.92 -20.12,5.92 -10.66,0 -16.57,-7.1 -16.57,-20.12l0 -47.35 39.07 0 0 -26.04 -39.07 0 0 -41.43 -30.78 0 0 41.43 -18.94 0 0 26.04 18.94 0 0 48.54c0,30.78 14.21,47.35 41.43,47.35 14.21,0 24.86,-3.55 34.33,-10.66l-8.29 -23.68 -0 0zm78.13 33.15c23.68,0 44.98,-11.84 55.64,-30.78l-24.86 -14.21c-5.92,10.66 -17.76,17.76 -30.78,17.76 -8.29,0 -16.57,-3.55 -23.68,-9.47 -5.92,-7.1 -8.29,-14.21 -8.29,-24.86 0,-9.47 2.37,-17.76 9.47,-23.68 5.92,-5.92 14.21,-9.47 23.68,-9.47 13.02,0 22.49,5.92 29.6,17.76l24.86 -13.02c-9.47,-21.31 -30.78,-33.15 -54.46,-33.15 -18.94,0 -34.33,5.92 -46.17,17.76 -11.84,10.66 -17.76,26.04 -17.76,43.8 0,17.76 5.92,33.15 17.76,44.98 11.84,10.66 26.04,16.57 44.98,16.57zm104.18 -2.37l0 -62.74c0,-17.76 11.84,-29.6 27.23,-29.6 15.39,0 24.86,9.47 24.86,28.41l0 63.93 30.78 0 0 -72.21c0,-15.39 -4.74,-27.23 -13.02,-35.52 -9.47,-9.47 -20.12,-13.02 -33.15,-13.02 -16.57,0 -30.78,8.29 -36.7,17.76l0 -61.56 -29.6 0 0 164.55 29.6 0zm143.24 -43.8l2.37 -119.57 -31.96 0 1.18 119.57 28.41 0zm-13.02 46.17c9.47,0 17.76,-7.1 17.76,-17.76 0,-9.47 -8.29,-16.57 -17.76,-16.57 -10.66,0 -17.76,7.1 -17.76,16.57 0,10.66 7.1,17.76 17.76,17.76z"/>
 </g>
</svg>
